<?xml version="1.0" encoding="UTF-8"?>
<svg id="_Слой_1" data-name="Слой 1" xmlns="http://www.w3.org/2000/svg" xmlns:xlink="http://www.w3.org/1999/xlink" viewBox="0 0 144 144">
  <defs>
    <style>
      .cls-1 {
        fill: #000;
      }

      .cls-1, .cls-2, .cls-3, .cls-4 {
        stroke-width: 0px;
      }

      .cls-2 {
        fill: none;
      }

      .cls-5 {
        clip-path: url(#clippath);
      }

      .cls-3 {
        fill: #1d1d1b;
      }

      .cls-4 {
        fill: #fff;
      }
    </style>
    <clipPath id="clippath">
      <circle class="cls-2" cx="72" cy="72" r="72"/>
    </clipPath>
  </defs>
  <circle class="cls-1" cx="72" cy="72" r="72"/>
  <g class="cls-5">
    <path class="cls-2" d="M69.38,76.39v2.67c-.02.93-.08,1.81-.17,2.66,0,.04,0,.09-.02.12,0,.04,0,.07-.02.11-.6,3.81-2.08,6.61-4.45,8.22-3.04,2.18-6.44,3.28-10.08,3.28-2.31,0-4.13-.73-5.83-2.06-1.58-1.21-2.43-3.28-2.43-6.19,0-3.28,1.34-5.59,4.01-7.16.24-.14.52-.28.82-.42,0,0,0,0,0,0,1.53-.56,3.54-1.09,6.05-1.5,2.24-.23,4.83-.34,7.68-.18,1.46.16,2.94.31,4.43.46Z"/>
    <path class="cls-4" d="M89.01,56.64v7.46c-.07,0-.32-.04-.74-.09-.06,0-.12-.02-.19-.02-.06,0-.13-.02-.21-.03h0c-.82-.11-2.73-.33-5.37-.59-.33-.03-.66-.06-1-.09-.44-.04-.89-.08-1.35-.12-.39-.04-.77-.07-1.14-.1-.16-.02-.32-.03-.48-.04-.16-.02-.33-.03-.49-.04-4.59-.36-10.22-.67-15.87-.64-.42,0-.83,0-.83,0-.69,0-1.37.03-2.03.06-.39.02-.78.05-1.17.08.53-.11.97-.2,1.28-.26,3.01-.63,4.32-.97,5.7-1.57.02-.01.04-.02.06-.03,2.54-.99,2.87-2.38,2.87-3.48,0-3.03-1.19-3.97-2.09-4.4-.02,0-.03-.02-.04-.02-1.69-.88-4.3-1.33-7.77-1.33-3.77,0-6.46.84-7.79,2.45-1.05,1.33-1.77,3.08-2.27,5.51-.15.72-.78,1.23-1.51,1.23h-17.22c-.42,0-.83-.18-1.13-.49-.29-.31-.44-.73-.41-1.16.41-6.16,2.2-11.32,5.33-15.32,0-.01.02-.02.02-.03,5.11-6.23,13.68-9.38,25.48-9.38,7.68,0,14.46,1.5,20.74,4.57,6.36,3.18,9.59,9.2,9.59,17.87Z"/>
    <path class="cls-2" d="M69.38,76.39v2.67c-.02.93-.08,1.81-.17,2.66,0,.04,0,.09-.02.12,0,.04,0,.07-.02.11-.6,3.81-2.08,6.61-4.45,8.22-3.04,2.18-6.44,3.28-10.08,3.28-2.31,0-4.13-.73-5.83-2.06-1.58-1.21-2.43-3.28-2.43-6.19,0-3.28,1.34-5.59,4.01-7.16.24-.14.52-.28.82-.42,0,0,0,0,0,0,1.53-.56,3.54-1.09,6.05-1.5,2.24-.23,4.83-.34,7.68-.18,1.58.09,3.06.26,4.43.46Z"/>
    <rect class="cls-4" x="102.69" y="40.53" width="17.97" height="17.61" rx="6.38" ry="6.38"/>
    <rect class="cls-4" x="102.69" y="84.86" width="17.97" height="17.73" rx="6.38" ry="6.38"/>
    <g>
      <path class="cls-3" d="M57.27,76.1c-2.5.42-4.52.94-6.05,1.5,0,0,0,0,0,0-.3.14-.58.28-.82.42-2.67,1.57-4.01,3.88-4.01,7.16,0,2.91.85,4.98,2.43,6.19,1.7,1.34,3.52,2.06,5.83,2.06,3.64,0,7.04-1.09,10.08-3.28,2.37-1.61,3.85-4.41,4.45-8.22,0-.04.01-.07.02-.11,0-.04.01-.08.02-.12.09-.84.15-1.73.17-2.66v-2.67c-1.37-.21-2.85-.37-4.43-.46-2.85-.17-5.44-.06-7.68.18Z"/>
      <path class="cls-4" d="M88.28,64.01c-.06,0-.12-.02-.19-.02s-.14-.02-.21-.03h0c-1.13-.13-3.02-.35-5.37-.59-.33-.03-.66-.06-1-.09-.44-.04-.89-.08-1.35-.12-.39-.04-.77-.07-1.14-.1-.16-.02-.32-.03-.48-.04-.16-.02-.33-.03-.49-.04-4.59-.36-10.22-.67-15.87-.64-.42,0-.83,0-.83,0-.69,0-1.37.03-2.03.06-.39.02-.78.05-1.17.08h0c-5.12.39-9.45,1.51-13.67,2.6-2.04.54-4.24,1.18-6.72,2.67-6.58,3.94-9.91,10.23-9.91,18.66,0,6.73,2.11,11.93,6.27,15.46,4.06,3.65,9.29,5.51,15.54,5.51,4.81,0,9.25-1.13,13.2-3.37.02,0,.03-.02.04-.02,2.09-1.26,4.09-2.72,5.94-4.37.02.19.05.38.07.56,0,.07.02.12.04.19.25,1.17.64,2.47,1.15,3.86.24.65.86,1.09,1.56,1.09h18.33c.91,0,1.65-.75,1.65-1.66-1.24-3.07-2.08-4.55-2.64-5.31-.04-.05-.08-.14-.17-.24-.1-.12-.44-.74-.59-3.52-.12-2.86-.12-5.23-.12-7.32v-7.82l.89-15.33s-.5-.06-.74-.09ZM69.38,79.06c-.02.93-.08,1.81-.17,2.66,0,.04,0,.09-.02.12,0,.04,0,.07-.02.11-.6,3.81-2.08,6.61-4.45,8.22-3.04,2.18-6.44,3.28-10.08,3.28-2.31,0-4.13-.73-5.83-2.06-1.58-1.21-2.43-3.28-2.43-6.19,0-3.28,1.34-5.59,4.01-7.16.24-.14.52-.28.82-.42,0,0,0,0,0,0,1.53-.56,3.54-1.09,6.05-1.5,2.24-.23,4.83-.34,7.68-.18,1.58.09,3.06.26,4.43.46v2.67Z"/>
    </g>
  </g>
</svg>