<?xml version="1.0" encoding="UTF-8"?>
<svg id="_Слой_1" data-name="Слой 1" xmlns="http://www.w3.org/2000/svg" xmlns:xlink="http://www.w3.org/1999/xlink" viewBox="240 1560 3725 880">
  <defs>
    <style>
      .cls-1 {
        fill: #eef1f5;
      }

      .cls-1, .cls-2, .cls-3, .cls-4, .cls-5, .cls-6, .cls-7, .cls-8 {
        stroke-width: 0px;
      }

      .cls-2 {
        fill: url(#_Безымянный_градиент_66-3);
      }

      .cls-3 {
        fill: url(#_Безымянный_градиент_66);
      }

      .cls-4 {
        fill: url(#_Безымянный_градиент_66-4);
      }

      .cls-5 {
        fill: none;
      }

      .cls-6 {
        fill: url(#_Безымянный_градиент_66-2);
      }

      .cls-7 {
        fill: url(#_Безымянный_градиент_66-5);
      }

      .cls-8 {
        fill: url(#_Безымянный_градиент_66-6);
      }
    </style>
    <linearGradient id="_Безымянный_градиент_66" data-name="Безымянный градиент 66" x1="531.93" y1="1690.71" x2="530.09" y2="2014.73" gradientUnits="userSpaceOnUse">
      <stop offset="0" stop-color="#aac8e0"/>
      <stop offset=".28" stop-color="#a5c4dd"/>
      <stop offset=".59" stop-color="#97b9d5"/>
      <stop offset=".91" stop-color="#81a7c8"/>
      <stop offset="1" stop-color="#7aa2c4"/>
    </linearGradient>
    <linearGradient id="_Безымянный_градиент_66-2" data-name="Безымянный градиент 66" x1="950.9" y1="2076.55" x2="628.71" y2="2415.31" xlink:href="#_Безымянный_градиент_66"/>
    <linearGradient id="_Безымянный_градиент_66-3" data-name="Безымянный градиент 66" x1="3713.1" y1="1466.46" x2="3801.47" y2="1805.21" xlink:href="#_Безымянный_градиент_66"/>
    <linearGradient id="_Безымянный_градиент_66-4" data-name="Безымянный градиент 66" x1="1860.46" y1="1949.76" x2="1948.83" y2="2288.51" xlink:href="#_Безымянный_градиент_66"/>
    <linearGradient id="_Безымянный_градиент_66-5" data-name="Безымянный градиент 66" x1="2475.83" y1="1789.23" x2="2564.2" y2="2127.98" xlink:href="#_Безымянный_градиент_66"/>
    <linearGradient id="_Безымянный_градиент_66-6" data-name="Безымянный градиент 66" x1="3157.41" y1="1611.42" x2="3245.78" y2="1950.18" xlink:href="#_Безымянный_градиент_66"/>
  </defs>
  <path class="cls-1" d="M1697.69,2176.07c0,56.7-20.26,102.61-63.04,137.88-41.68,35.27-106.83,53.42-194.5,53.42s-155.01-19.17-197.71-56.62c-42.78-37.38-64.13-85.48-64.13-144.29h150.71c3.21,26.74,10.64,45.98,20.26,56.7,18.22,19.24,53.49,29.88,102.61,29.88,28.86,0,52.4-4.23,70.54-13.85,17.13-8.6,24.56-21.42,24.56-38.48,0-14.87-4.81-26.45-15.16-34.91-1.6-1.24-3.28-2.48-5.1-3.57-1.89-1.17-4.59-2.48-7.94-3.86-5.32-2.26-12.39-4.81-21.21-7.65-26.38-8.45-68.5-19.6-125.86-33.38-55.02-13.77-96.63-30.68-124.18-49.99-3.72-2.62-7.14-5.25-10.35-7.94-.8-.58-1.53-1.24-2.26-1.89-2.04-1.89-4.08-3.86-5.98-5.9-21.79-23.17-33.52-55.46-33.52-96.71,0-52.4,21.35-97.29,61.94-135.77,41.68-37.38,99.4-55.53,174.24-55.53,70.54,0,129.28,13.85,174.17,41.68,43.8,28.86,69.45,77.98,75.86,147.43h-148.52c-2.19-19.24-7.51-34.18-16.03-45.91-16.03-20.33-43.8-29.95-83.37-29.95-32.07,0-55.6,5.32-68.43,14.94-14.94,10.71-21.35,22.45-21.35,35.27,0,18.22,7.51,29.95,22.45,37.46,13.92,7.43,66.24,22.44,154.93,41.68,58.81,13.85,102.61,34.18,132.56,63.04.66.66,1.24,1.24,1.82,1.89,2.4,2.41,4.66,4.88,6.78,7.43,2.11,2.48,4.15,4.95,6.05,7.51,14.65,19.38,23.9,41.25,27.47,65.95.36,2.4.66,4.81.8,7.29.29,2.4.51,4.81.58,7.29.22,3.13.29,6.27.29,9.47Z"/>
  <path class="cls-1" d="M2068.55,2242.38v111.13l-70.54,2.11c-70.54,3.21-118.57-9.62-144.22-36.29-17.13-17.13-25.65-42.78-25.65-79.14v-74.84h.22c48.17-.8,97.73-1.97,147.21-3.5v29.22c0,23.47,3.21,37.39,8.6,43.8,6.41,5.32,24.56,8.53,54.51,8.53,5.32,0,9.62,0,14.94-1.02h14.94Z"/>
  <path class="cls-1" d="M2068.55,1784.95v105.81h-92.99v183.06h-.07c-25.51.22-51.6.36-77.47.36-23.03,0-46.49-.15-69.74-.29h-.15v-183.13h-79.14v-105.81h79.14v-159.23h147.43v159.23h92.99Z"/>
  <path class="cls-1" d="M2318.66,1922.32c-23.54,30.97-35.27,75.86-35.27,132.49,0,1.89,0,3.86.07,5.68v1.09c-.07,1.09-.07,2.19-.07,3.35v1.68c0,2.48.07,4.88.15,7.29,0,2.48.07,4.88.22,7.29.73,18.66,2.91,35.85,6.49,51.52.58,2.48,1.17,4.88,1.75,7.22.66,2.48,1.31,4.88,2.04,7.21,5.83,19.24,14.06,35.78,24.63,49.26,23.54,30.97,56.62,47,100.42,47s75.94-16.03,99.4-47c13.92-17.78,23.76-40.74,29.37-68.28.73-.07,1.53-.15,2.26-.22,53.05-4.66,105.74-9.62,156.9-14.87-7.51,63.11-30.24,118.49-68.79,165.64-48.1,59.9-120.75,89.78-219.13,89.78s-169.87-29.88-217.97-89.78c-29.66-36.22-50.36-77.32-61.87-123.08-.58-2.41-1.17-4.81-1.68-7.21-.66-2.41-1.17-4.81-1.6-7.29h-.07c-3.64-17.71-5.9-36.07-6.85-55.09-.15-2.41-.29-4.88-.29-7.29-.15-2.41-.22-4.81-.15-7.29-.15-2.11-.15-4.3-.15-6.49,0-82.28,24.56-153.91,72.66-213.74,48.1-59.83,120.75-89.78,217.97-89.78s171.04,29.95,219.13,89.78c43.43,54,66.75,117.69,70.83,190.13h-.44c-49.99,4.01-102.1,7.72-154.86,11.22-.29-55.6-12.02-99.69-35.27-130.23-23.47-29.95-56.62-45.98-99.4-45.98s-76.88,16.03-100.42,45.98Z"/>
  <path class="cls-1" d="M3145.86,1766.8v152.82c-9.62-1.09-18.15-2.19-25.65-2.19-7.51-1.02-12.83-1.02-17.13-1.02-60.92,0-100.42,19.24-120.75,58.74-5.9,10.79-10.2,24.92-12.97,42.12-.44,2.4-.8,4.88-1.09,7.43-.36,2.4-.66,4.88-.87,7.43-1.24,11.08-1.89,23.32-2.04,36.58-.07,2.4-.07,4.81-.07,7.29v272.19h-150.71v-568.57h142.11v99.33c23.54-38.4,42.78-64.06,59.83-77.98,27.84-23.54,64.13-35.27,109.02-35.27h7.51c1.09,1.09,5.32,1.09,12.83,1.09Z"/>
  <path class="cls-1" d="M3726.16,2104.5h-389.01c2.11,57.72,20.33,97.21,53.42,120.75,20.33,13.92,45.98,21.35,74.84,21.35,30.97,0,54.51-9.62,74.77-26.67,9.62-8.6,19.24-22.45,26.74-38.48h152.82c-4.23,33.09-22.45,67.34-53.42,102.61-48.1,55.53-116.53,83.3-204.12,83.3-72.66,0-136.79-23.47-191.3-70.47-55.6-45.98-83.37-122.94-83.37-227.66,0-5.54.07-11,.22-16.32.8-.15,1.53-.22,2.33-.36,87.3-12.97,173.22-26.74,255.35-41.1,8.02-1.38,16.03-2.84,23.98-4.23h102.83c-.29-3.42-.58-6.85-1.02-10.13-.29-2.77-.73-5.54-1.17-8.16-.29-2.48-.73-4.88-1.24-7.21-.44-2.4-.95-4.81-1.46-7.14-1.75-7.21-3.79-13.99-6.27-20.33-.95-2.4-1.89-4.74-2.99-6.92-1.09-2.4-2.26-4.66-3.43-6.85-4.88-8.74-10.71-16.4-17.71-23.03-21.35-20.26-48.1-30.97-80.09-30.97-34.25,0-60.92,11.73-80.16,33.16-12.53,13.92-21.86,30.97-27.98,51.45h-.07c-.87.15-1.75.29-2.7.36-1.68.29-3.35.51-5.03.73-46.13,6.41-95.68,12.97-147.5,19.46,9.98-61.22,32.79-110.62,68.87-148.96,50.28-52.4,114.41-78.05,194.58-78.05,47,0,89.71,8.6,128.19,26.75,37.46,17.12,68.43,44.89,92.99,83.37,8.67,13.26,16.25,27.11,22.66,41.68.95,2.26,1.89,4.52,2.84,6.85.95,2.33,1.82,4.66,2.7,7,1.97,5.17,3.79,10.49,5.47,15.89.73,2.33,1.38,4.66,2.04,7,.66,2.33,1.31,4.66,1.82,7.07,2.7,10.35,4.74,20.99,6.34,32.07,3.13,25.65,5.32,64.13,4.23,112.23Z"/>
  <path class="cls-3" d="M786.39,1936.53v76.59c-3.79-.87-7.29-1.75-10.42-2.7-4.52-1.31-111.5-32.43-217.9-32.43-2.4,0-4.88,0-7.29.07,15.38-2.48,26.89-5.47,34.4-8.89.22-.07.44-.22.66-.29,20.19-8.09,22.81-19.24,22.81-28.13,0-25-9.4-32.58-16.47-36.07-.15-.07-.29-.15-.44-.22-13.7-7.36-35.13-11.08-63.62-11.08-30.83,0-52.76,7-63.26,19.97-8.6,11.15-14.5,25.87-18.66,46.27-1.38,6.85-7.36,11.73-14.28,11.73h-143.2c-4.01,0-7.87-1.68-10.64-4.59-2.77-2.99-4.15-6.92-3.94-10.93,3.5-52.54,18.51-96.56,44.89-131.03,42.85-53.27,114.63-80.31,213.38-80.31,64.2,0,120.83,12.75,173.37,39.06,53.49,27.33,80.6,78.78,80.6,152.96Z"/>
  <rect class="cls-1" x="922.46" y="1786.35" width="158.17" height="154.97" rx="56.12" ry="56.12"/>
  <rect class="cls-1" x="922.46" y="2176.44" width="158.17" height="156.03" rx="56.12" ry="56.12"/>
  <path class="cls-5" d="M622.2,2098.16c-12.32-1.24-24.56-2.55-36.58-3.86,13.12.73,25.29,2.11,36.58,3.86Z"/>
  <path class="cls-6" d="M1524.83,2165.72c2.33,0,4.66.07,7,.07-1.6-1.24-3.28-2.48-5.1-3.57-1.89-1.17-4.59-2.48-7.94-3.86-5.32-2.26-12.39-4.81-21.21-7.65-26.38-8.45-68.5-19.6-125.86-33.38-55.02-13.77-96.63-30.68-124.18-49.99-3.72-2.62-7.14-5.25-10.35-7.94-.8-.58-1.53-1.24-2.26-1.89-2.04-1.89-4.08-3.86-5.98-5.9-250.18-16.03-385.44-25.21-442.57-38.48-3.79-.87-7.29-1.75-10.42-2.7-4.52-1.31-111.5-32.43-217.9-32.43-2.4,0-4.88,0-7.29.07-6.05.07-12.1.22-17.85.51-49.63,2.55-90.73,13.26-130.59,23.54-17.93,4.74-37.31,10.35-59.1,23.47-57.86,34.69-87.23,90-87.23,164.19,0,59.25,18.58,105.01,55.17,136.06,35.78,32.14,81.77,48.46,136.79,48.46,42.34,0,81.4-9.98,116.16-29.66.15-.07.22-.15.36-.15,18.44-11.08,36-23.98,52.25-38.48.22,1.68.44,3.35.58,4.96.07.58.15,1.09.29,1.68,2.26,10.28,5.68,21.72,10.13,33.96,2.11,5.76,7.58,9.55,13.7,9.55h161.35c8.02,0,14.57-6.56,14.57-14.57v-22.45c0-5.76-3.35-10.93-8.6-13.34-7.58-3.35-12.32-6.92-14.65-11-.44-.73-.95-1.46-1.46-2.11-.87-1.02-3.86-6.49-5.17-30.97-1.09-25.14-1.09-45.98-1.09-64.42v-68.79c243.55,21.28,491.83,33.81,738.44,37.24ZM622.2,2120.32c-1.09,49.19-15.01,84.46-41.68,102.61-26.74,19.24-56.62,28.86-88.69,28.86-20.33,0-36.36-6.41-51.3-18.15-13.92-10.71-21.43-28.86-21.43-54.51,0-28.86,11.81-49.19,35.27-63.04,12.83-7.51,35.27-15.01,67.34-20.33,12.46-1.31,26.16-2.11,40.96-2.11,7.29,0,14.94.22,22.74.66h.22c12.02,1.31,24.27,2.62,36.58,3.86v22.15Z"/>
  <g>
    <path class="cls-2" d="M3953.09,1890.76c0,12.1-11.15,15.45-25.29,19.68-10.49,3.13-25.8,7.29-44.24,11.88-43.29,10.86-102.32,24.19-166.23,37.53-.58.15-1.17.22-1.75.36-.51-2.41-1.17-4.74-1.82-7.07-.66-2.33-1.31-4.66-2.04-7-1.68-5.39-3.5-10.71-5.47-15.89-.87-2.33-1.75-4.66-2.7-7-.95-2.33-1.89-4.59-2.84-6.85,2.11-.36,4.23-.73,6.34-1.09,57.13-9.84,103.7-18.22,141.09-25,59.61-10.79,80.67-14.5,88.69-14.5,11.08,0,15.3,7.94,16.03,12.61.15.73.22,1.53.22,2.33Z"/>
    <path class="cls-4" d="M2139.24,2155.59h-.44c-56.11,2.62-110.92,4.74-162.8,6.27h-.44c-49.48,1.53-99.04,2.7-147.21,3.5h-.22c-40.88.66-83.66,1.09-130.74,1.24-.07-2.48-.29-4.88-.58-7.29-.15-2.48-.44-4.88-.8-7.29-3.57-24.71-12.83-46.57-27.47-65.95-1.89-2.55-3.94-5.03-6.05-7.51-2.11-2.55-4.37-5.03-6.78-7.43,6.7.22,13.34.36,20.04.51,53.71,1.17,103.55,1.89,152.38,2.26h.15c23.25.15,46.71.29,69.74.29,25.87,0,51.96-.15,77.47-.36h.07c49.99-.36,101.44-1.17,153.04-2.41-.07,2.48,0,4.88.15,7.29,0,2.41.15,4.88.29,7.29.95,19.02,3.21,37.38,6.85,55.09h.07c.44,2.48.95,4.88,1.6,7.29.51,2.4,1.09,4.81,1.68,7.21Z"/>
    <path class="cls-7" d="M2814.57,2032.28v69.16c-37.17,4.15-71.71,7.94-105.6,11.37-.66.07-1.31.15-1.97.22-51.16,5.25-103.85,10.2-156.9,14.87-.73.07-1.53.15-2.26.22-.8.07-1.53.15-2.33.22h-.07c-60.27,5.25-122.65,10.13-185.47,14.5-20.99,1.46-41.76,2.7-62.53,4.08-.44,0-.87.07-1.31.07l-2.11.15c-.73-2.33-1.38-4.74-2.04-7.21-.58-2.33-1.17-4.74-1.75-7.22-3.57-15.67-5.76-32.87-6.49-51.52-.15-2.4-.22-4.81-.22-7.29-.07-2.4-.15-4.81-.15-7.29h.44c89.27-3.42,179.64-8.16,268.69-13.99.36,0,.66-.07,1.02-.07h.22c52.76-3.5,104.87-7.21,154.86-11.22h.44c40.37-3.28,73.53-6.12,104.21-8.89.44-.07.87-.07,1.31-.15Z"/>
    <path class="cls-8" d="M3570.06,1988.92c-14.36,2.7-29,5.39-44.02,8.16-18.44,3.35-37.38,6.7-56.62,10.13-7.94,1.39-15.96,2.84-23.98,4.23-82.13,14.36-168.05,28.13-255.35,41.1-.8.15-1.53.22-2.33.36-71.78,10.57-146.04,20.7-220.74,30.24l-1.75.22v-7.36c0-2.48,0-4.88.07-7.29.15-13.26.8-25.51,2.04-36.58.22-2.55.51-5.03.87-7.43.29-2.55.66-5.03,1.09-7.43,72.73-7.58,146.33-16.03,218.92-25,1.75-.22,3.5-.44,5.17-.66,51.81-6.49,101.37-13.04,147.5-19.46,1.68-.22,3.35-.44,5.03-.73.95-.07,1.82-.22,2.7-.36h.07c68.36-9.55,135.91-19.53,205.94-30.61,1.17,2.19,2.33,4.45,3.43,6.85,1.09,2.19,2.04,4.52,2.99,6.92,2.48,6.34,4.52,13.12,6.27,20.33.51,2.33,1.02,4.74,1.46,7.14.51,2.33.95,4.74,1.24,7.21Z"/>
  </g>
</svg>
